<svg width="12" height="14" viewBox="0 0 12 14" fill="none" xmlns="http://www.w3.org/2000/svg">
<path d="M10.4291 3.02587L10.4291 3.02596C10.5149 3.10977 10.583 3.20986 10.6295 3.32037C10.6761 3.43086 10.7 3.54952 10.7 3.6694C10.7 3.66942 10.7 3.66944 10.7 3.66946V9.8C10.7 10.0387 10.6052 10.2676 10.4364 10.4364C10.2677 10.6052 10.0387 10.7 9.80005 10.7H4.20005C3.96135 10.7 3.73244 10.6052 3.56365 10.4364C3.39487 10.2676 3.30005 10.0387 3.30005 9.8V1.4C3.30005 1.16131 3.39487 0.932387 3.56365 0.763604C3.73244 0.594821 3.96135 0.5 4.20005 0.5H7.47949C7.47951 0.5 7.47953 0.5 7.47955 0.5C7.71467 0.500046 7.94043 0.592098 8.10855 0.756467C8.10856 0.756478 8.10858 0.756489 8.10859 0.7565L10.4291 3.02587Z" stroke="#F8F8F8" stroke-linecap="round" stroke-linejoin="round"/>
<mask id="path-2-inside-1_597_3704" fill="white">
<path d="M8.4 11.2V12.6C8.4 12.9713 8.2525 13.3274 7.98995 13.5899C7.7274 13.8525 7.3713 14 7 14H1.4C1.0287 14 0.672601 13.8525 0.41005 13.5899C0.1475 13.3274 0 12.9713 0 12.6V4.9C0 4.5287 0.1475 4.1726 0.41005 3.91005C0.672601 3.6475 1.0287 3.5 1.4 3.5H2.8"/>
</mask>
<path d="M9.4 11.2C9.4 10.6477 8.95228 10.2 8.4 10.2C7.84771 10.2 7.4 10.6477 7.4 11.2H9.4ZM0 12.6H-1H0ZM1.4 3.5V2.5V3.5ZM2.8 4.5C3.35228 4.5 3.8 4.05228 3.8 3.5C3.8 2.94772 3.35228 2.5 2.8 2.5V4.5ZM7.4 11.2V12.6H9.4V11.2H7.4ZM7.4 12.6C7.4 12.7061 7.35786 12.8078 7.28284 12.8828L8.69706 14.2971C9.14714 13.847 9.4 13.2365 9.4 12.6H7.4ZM7.28284 12.8828C7.20783 12.9579 7.10609 13 7 13V15C7.63652 15 8.24697 14.7471 8.69706 14.2971L7.28284 12.8828ZM7 13H1.4V15H7V13ZM1.4 13C1.29391 13 1.19217 12.9579 1.11716 12.8828L-0.297056 14.2971C0.153031 14.7471 0.76348 15 1.4 15V13ZM1.11716 12.8828C1.04214 12.8078 1 12.7061 1 12.6H-1C-1 13.2365 -0.747144 13.847 -0.297056 14.2971L1.11716 12.8828ZM1 12.6V4.9H-1V12.6H1ZM1 4.9C1 4.79391 1.04214 4.69217 1.11716 4.61716L-0.297056 3.20294C-0.747144 3.65303 -1 4.26348 -1 4.9H1ZM1.11716 4.61716C1.19217 4.54214 1.29391 4.5 1.4 4.5V2.5C0.763481 2.5 0.153031 2.75286 -0.297056 3.20294L1.11716 4.61716ZM1.4 4.5H2.8V2.5H1.4V4.5Z" fill="#F8F8F8" mask="url(#path-2-inside-1_597_3704)"/>
</svg>
