<svg width="44" height="44" viewBox="0 0 44 44" fill="none" xmlns="http://www.w3.org/2000/svg">
<rect width="44" height="44.0003" rx="22" fill="#2EC674"/>
<path d="M14 31.0003H30M15.666 23.1873C15.2394 23.6145 14.9999 24.1936 15 24.7973V28.0003H18.223C18.827 28.0003 19.406 27.7603 19.833 27.3323L29.333 17.8273C29.7597 17.4002 29.9994 16.8211 29.9994 16.2173C29.9994 15.6136 29.7597 15.0345 29.333 14.6073L28.395 13.6673C28.1835 13.4557 27.9323 13.2878 27.6558 13.1733C27.3794 13.0588 27.083 12.9999 26.7838 13C26.4846 13.0001 26.1883 13.0592 25.9119 13.1738C25.6355 13.2885 25.3844 13.4566 25.173 13.6683L15.666 23.1873Z" stroke="white" stroke-width="1.5" stroke-linecap="round" stroke-linejoin="round"/>
</svg>
