<svg width="24" height="24" viewBox="0 0 24 24" fill="none" xmlns="http://www.w3.org/2000/svg">
<path d="M18.0007 4H6.00066C4.89566 4 3.97466 4.91 4.24766 5.98C4.53829 7.11389 5.07367 8.1704 5.81618 9.07531C6.5587 9.98021 7.49034 10.7116 8.54566 11.218C9.36866 11.612 10.0007 12.386 10.0007 13.298V19.382C10.0008 19.5524 10.0444 19.7199 10.1274 19.8687C10.2104 20.0175 10.3301 20.1426 10.4751 20.2322C10.62 20.3218 10.7855 20.3728 10.9557 20.3805C11.1259 20.3881 11.2952 20.3522 11.4477 20.276L13.4477 19.276C13.6137 19.193 13.7534 19.0654 13.8511 18.9075C13.9488 18.7496 14.0006 18.5677 14.0007 18.382V13.298C14.0007 12.386 14.6327 11.612 15.4547 11.218C16.5104 10.7119 17.4425 9.98062 18.1853 9.0757C18.9282 8.17077 19.4639 7.11411 19.7547 5.98C20.0257 4.91 19.1037 4 18.0007 4Z" stroke="#D9D9D9" stroke-width="2"/>
</svg>
