<svg width="20" height="22" viewBox="0 0 20 22" fill="none" xmlns="http://www.w3.org/2000/svg">
<path fill-rule="evenodd" clip-rule="evenodd" d="M10 0C4.477 0 0 4.477 0 10C0 15.523 4.477 20 10 20C15.523 20 20 15.523 20 10C20 4.477 15.523 0 10 0ZM10 1C10 3.38695 9.05179 5.67613 7.36396 7.36396C5.67613 9.05179 3.38695 10 1 10C3.38695 10 5.67613 10.9482 7.36396 12.636C9.05179 14.3239 10 16.6131 10 19C10 16.6131 10.9482 14.3239 12.636 12.636C14.3239 10.9482 16.6131 10 19 10C16.6131 10 14.3239 9.05179 12.636 7.36396C10.9482 5.67613 10 3.38695 10 1Z" fill="#2DC574"/>
</svg>
