<svg width="34" height="26" viewBox="0 0 34 26" fill="none" xmlns="http://www.w3.org/2000/svg">
<path d="M28.5503 2.39981C26.4337 1.43314 24.1503 0.699805 21.767 0.299805C21.717 0.299805 21.6837 0.299805 21.6503 0.349805C21.3503 0.866472 21.0337 1.5498 20.8003 2.08314C18.2337 1.6998 15.6837 1.6998 13.1836 2.08314C12.9503 1.53314 12.617 0.866472 12.3336 0.349805C12.317 0.316472 12.267 0.299805 12.217 0.299805C9.83362 0.716471 7.55029 1.43314 5.43362 2.39981C5.41696 2.39981 5.40029 2.41647 5.38362 2.43314C1.06696 8.88314 -0.116377 15.1832 0.466956 21.3998C0.466956 21.4332 0.483623 21.4665 0.516956 21.4832C3.36696 23.5832 6.13362 24.8498 8.83362 25.6832C8.88362 25.6832 8.91696 25.6832 8.95029 25.6498C9.58362 24.7665 10.167 23.8498 10.6503 22.8832C10.6836 22.8332 10.6503 22.7665 10.6003 22.7332C9.70029 22.3832 8.83362 21.9665 8.00029 21.4998C7.93362 21.4665 7.93362 21.3665 8.00029 21.3165C8.16696 21.1832 8.35029 21.0498 8.51696 20.9165C8.55029 20.8832 8.58362 20.8832 8.61696 20.9165C14.067 23.3998 19.9837 23.3998 25.367 20.9165C25.4003 20.8998 25.4503 20.9165 25.4837 20.9165C25.6503 21.0498 25.817 21.1998 26.0003 21.3165C26.067 21.3665 26.0503 21.4498 26.0003 21.4998C25.167 21.9832 24.3003 22.3998 23.4003 22.7332C23.3337 22.7498 23.317 22.8165 23.3503 22.8832C23.8503 23.8498 24.417 24.7832 25.0503 25.6498C25.0837 25.6832 25.117 25.6998 25.167 25.6832C27.8837 24.8332 30.6503 23.5665 33.5003 21.4832C33.517 21.4665 33.5337 21.4332 33.5503 21.3998C34.2503 14.2165 32.3837 7.96647 28.617 2.43314C28.617 2.41647 28.6003 2.39981 28.567 2.39981H28.5503ZM11.467 17.6332C9.81696 17.6332 8.46696 16.1332 8.46696 14.2665C8.46696 12.3998 9.80029 10.8998 11.467 10.8998C13.1336 10.8998 14.4837 12.4165 14.467 14.2665C14.467 16.1165 13.1336 17.6332 11.467 17.6332ZM22.5503 17.6332C20.9003 17.6332 19.5503 16.1332 19.5503 14.2665C19.5503 12.3998 20.8837 10.8998 22.5503 10.8998C24.217 10.8998 25.567 12.4165 25.5503 14.2665C25.5503 16.1165 24.2337 17.6332 22.5503 17.6332Z" fill="#CEFFCD"/>
</svg>
