<svg width="40" height="40" viewBox="0 0 40 40" fill="none" xmlns="http://www.w3.org/2000/svg">
<path d="M33.2188 6.99268H7.20833C5.42012 6.99268 3.95703 8.45593 3.95703 10.2443V29.7544C3.95703 31.5428 5.42012 33.006 7.20833 33.006H33.2188C35.007 33.006 36.47 31.5428 36.47 29.7544V10.2443C36.47 8.45593 35.007 6.99268 33.2188 6.99268ZM32.5685 13.9024L21.9367 20.5521C20.8801 21.2187 19.547 21.2187 18.4904 20.5521L7.85859 13.9024C7.69558 13.8109 7.55284 13.6873 7.43899 13.539C7.32514 13.3908 7.24256 13.2208 7.19626 13.0398C7.14995 12.8586 7.14087 12.67 7.16957 12.4852C7.19826 12.3004 7.26415 12.1235 7.36322 11.965C7.4623 11.8065 7.5925 11.6696 7.74597 11.5629C7.89944 11.4562 8.07296 11.3816 8.25605 11.3439C8.43914 11.3061 8.62798 11.3059 8.81115 11.3433C8.99432 11.3807 9.16799 11.4548 9.32168 11.5612L20.2135 18.3735L31.1054 11.5612C31.2591 11.4548 31.4327 11.3807 31.6159 11.3433C31.7991 11.3059 31.9879 11.3061 32.171 11.3439C32.3541 11.3816 32.5276 11.4562 32.681 11.5629C32.8346 11.6696 32.9648 11.8065 33.0639 11.965C33.1629 12.1235 33.2288 12.3004 33.2575 12.4852C33.2862 12.67 33.2771 12.8586 33.2308 13.0398C33.1845 13.2208 33.1019 13.3908 32.9881 13.539C32.8743 13.6873 32.7315 13.8109 32.5685 13.9024Z" fill="#CEFFCD"/>
</svg>
