<svg width="40" height="40" viewBox="0 0 40 40" fill="none" xmlns="http://www.w3.org/2000/svg">
<path d="M3.95 18.5667C12.9 14.6667 18.8666 12.1001 21.8499 10.8501C30.3832 7.30008 32.1499 6.68341 33.2999 6.66675C33.5499 6.66675 34.1166 6.73341 34.4832 7.01675C34.7832 7.26675 34.8832 7.61675 34.9166 7.85008C34.9499 8.08341 34.9999 8.63341 34.9666 9.05008C34.4999 13.9001 32.4999 25.6834 31.4832 31.1167C31.0499 33.4167 30.1999 34.1834 29.3832 34.2667C27.5999 34.4334 26.2499 33.0834 24.5166 31.9501C21.8166 30.1834 20.2832 29.0834 17.6666 27.3501C14.6333 25.3501 16.6 24.2501 18.3332 22.4667C18.7832 22.0001 26.6332 14.8501 26.7832 14.2001C26.7999 14.1167 26.8166 13.8167 26.6332 13.6501C26.4499 13.4834 26.1999 13.5501 25.9999 13.5834C25.7332 13.6501 21.4166 16.5001 13.05 22.1334C11.8333 22.9667 10.7167 23.3834 9.71666 23.3667C8.61666 23.3501 6.51666 22.7501 4.95 22.2334C3.03333 21.6167 1.49999 21.2834 1.63333 20.2167C1.7 19.6667 2.46667 19.1001 3.91667 18.5167L3.95 18.5667Z" fill="#CEFFCD"/>
</svg>
