<svg width="41" height="41" viewBox="0 0 41 41" fill="none" xmlns="http://www.w3.org/2000/svg">
<circle cx="20.5" cy="20.5" r="20.5" fill="#38F68F"/>
<path d="M10.6339 29.4668L12.8626 15.5036H8.49623L8.92832 12.8656H20.4809L20.0488 15.5036H15.7052L13.4993 29.4668H10.6339ZM20.1073 29.4668L21.1989 12.8656H23.9278L22.9954 23.9634C22.9803 24.1756 22.95 24.4789 22.9045 24.873C22.8742 25.2521 22.8287 25.6538 22.768 26.0783C22.7225 26.4877 22.6771 26.8591 22.6316 27.1927C22.7225 26.8591 22.8135 26.4877 22.9045 26.0783C23.0106 25.6538 23.1092 25.2521 23.2001 24.873C23.3062 24.4789 23.3896 24.1756 23.4503 23.9634L26.4521 12.8656H29.1129L28.5216 23.9634C28.5064 24.1756 28.4913 24.4789 28.4761 24.873C28.4609 25.2521 28.4458 25.6538 28.4306 26.0783C28.4155 26.4877 28.4003 26.8591 28.3851 27.1927C28.4458 26.8591 28.514 26.4877 28.5898 26.0783C28.6656 25.6538 28.7414 25.2521 28.8172 24.873C28.9082 24.4789 28.9764 24.1756 29.0219 23.9634L31.5689 12.8656H34.3889L30.0907 29.4668H26.5431L27.1571 18.4372C27.1723 18.1795 27.195 17.846 27.2253 17.4366C27.2557 17.0121 27.286 16.5725 27.3163 16.1176C27.3618 15.6628 27.3997 15.261 27.43 14.9123C27.3542 15.261 27.2632 15.6628 27.1571 16.1176C27.0661 16.5725 26.9752 17.0121 26.8842 17.4366C26.7932 17.846 26.7099 18.1795 26.6341 18.4372L23.6777 29.4668H20.1073Z" fill="#121212"/>
</svg>
